<?xml version="1.0" encoding="UTF-8"?>
<svg id="Layer_1" xmlns="http://www.w3.org/2000/svg" version="1.1" viewBox="0 0 474.34 109.73">
  <!-- Generator: Adobe Illustrator 29.7.1, SVG Export Plug-In . SVG Version: 2.1.1 Build 8)  -->
  <defs>
    <style>
      .st0 {
        fill: #c32026;
      }

      .st1 {
        fill: none;
        stroke: #000;
        stroke-miterlimit: 10;
        stroke-width: 3px;
      }
    </style>
  </defs>
  <path class="st0" d="M70.61,36.38c-1.85-1.22-3.69-1.82-5.54-1.78-2.97.06-5.53,1.47-7.69,4.25-2.16,2.77-3.2,6.08-3.13,9.93l.54,27.03-8.36.17-3.96-51.69,11.38,4.38.15,7.53c2.94-5.67,7.42-8.56,13.43-8.68,1.5-.03,3.66.19,6.49.66l-3.31,8.21Z"/>
  <path class="st0" d="M84.34,32.66v30.07c0,7.28,3.15,10.92,9.47,10.92,2.76,0,5.28-.79,7.57-2.38,2.29-1.59,3.8-3.42,4.53-5.5v-33.11h8.37v47.15h-8.37v-6.52c-.94,1.85-2.83,3.55-5.66,5.09-2.83,1.54-5.6,2.31-8.3,2.31-5.17,0-9.12-1.48-11.87-4.45-2.75-2.96-4.12-7.18-4.12-12.64v-30.95h8.37Z"/>
  <path class="st0" d="M130.83,76.06l-2.67,4.45-4.17.27-4.36-67.22,8.35-.54,1.47,22.76c.72-1.13,2.14-2.23,4.27-3.28,2.12-1.05,4.24-1.64,6.35-1.78,6.44-.42,11.81,1.47,16.1,5.66,4.29,4.19,6.65,9.69,7.09,16.48.51,7.85-1.1,14.15-4.82,18.91-3.72,4.76-9.01,7.36-15.86,7.8-2.23.14-4.44-.13-6.65-.83-2.21-.7-3.9-1.59-5.09-2.69ZM129.87,42.15l1.76,27.15c.03.47,1.12,1.17,3.27,2.1,2.15.93,3.77,1.36,4.85,1.29,5.68-.37,9.67-1.99,11.95-4.88,2.28-2.88,3.22-7.53,2.8-13.95-.35-5.33-2.05-9.4-5.11-12.2-3.06-2.8-7.03-4.05-11.89-3.73-1.03.07-2.43.6-4.2,1.59-1.77,1-2.92,1.87-3.43,2.6Z"/>
  <path class="st0" d="M203.04,58.3l-33.48-5.85c-.95,5.44-.19,9.87,2.28,13.31,2.19,3,5.35,4.87,9.48,5.59,4.71.82,8.89.14,12.52-2.06l2.43,6.55c-1.5,1.05-3.64,1.81-6.43,2.27-3.51.64-7.29.6-11.33-.1-5.84-1.02-10.45-3.87-13.84-8.54-3.78-5.16-5.02-11.43-3.73-18.8,1.34-7.66,4.74-13.4,10.2-17.21,4.89-3.41,10.18-4.61,15.87-3.62,6.62,1.16,11.49,3.93,14.59,8.31,3.02,4.22,4.01,9.3,2.97,15.23-.32,1.82-.83,3.46-1.53,4.92ZM186.18,36.85c-3.67-.64-6.96,0-9.86,1.94-2.77,1.84-4.6,4.41-5.5,7.71l25.72,4.5c.58-3.32.03-6.28-1.67-8.87-1.86-2.83-4.76-4.59-8.69-5.27Z"/>
  <path class="st0" d="M239.79,75.56l-2.91-27.27c-.53-4.99-1.66-8.41-3.38-10.25-1.72-1.84-4.34-2.57-7.87-2.19-1.9.2-3.82.98-5.77,2.34-1.95,1.36-3.39,2.93-4.32,4.71l7.52,35.66-12.11.07-5.01-46.89,5.69-.61,3.27,5.76c2.25-4.9,6.48-7.69,12.7-8.35,10.27-1.1,16.08,4.6,17.41,17.09l7.78,30.32-13-.41Z"/>
  <path d="M271.28,56.12c0-7.28,1.96-13.16,5.88-17.63,3.92-4.48,9.08-6.71,15.48-6.71,6.75,0,11.99,2.15,15.72,6.45,3.73,4.3,5.59,10.27,5.59,17.9s-1.91,13.6-5.72,17.99c-3.82,4.39-9.01,6.58-15.59,6.58s-11.96-2.21-15.72-6.65c-3.76-4.43-5.64-10.41-5.64-17.92ZM280.09,56.12c0,11.83,4.18,17.75,12.55,17.75,3.9,0,6.96-1.59,9.18-4.76,2.22-3.17,3.32-7.5,3.32-12.99,0-11.68-4.17-17.52-12.5-17.52-3.82,0-6.86,1.56-9.14,4.67-2.27,3.11-3.41,7.4-3.41,12.86Z"/>
  <path d="M343.54,55.5c0-7.28,1.96-13.16,5.88-17.63,3.92-4.48,9.08-6.71,15.48-6.71,6.75,0,11.99,2.15,15.72,6.45,3.73,4.3,5.59,10.27,5.59,17.9s-1.91,13.6-5.72,17.99c-3.82,4.39-9.01,6.58-15.59,6.58s-11.96-2.21-15.72-6.65c-3.76-4.43-5.64-10.41-5.64-17.92ZM352.35,55.5c0,11.83,4.18,17.75,12.55,17.75,3.9,0,6.96-1.59,9.18-4.76,2.22-3.17,3.32-7.5,3.32-12.99,0-11.68-4.17-17.52-12.5-17.52-3.82,0-6.86,1.56-9.14,4.67-2.27,3.11-3.41,7.4-3.41,12.86Z"/>
  <path d="M297.8,56.92c0,2.67-1.87,4.83-4.17,4.83s-4.17-2.16-4.17-4.83,1.87-4.83,4.17-4.83,4.17,2.16,4.17,4.83Z"/>
  <path d="M369.05,54.18c0,2.67-1.87,4.83-4.17,4.83s-4.17-2.16-4.17-4.83,1.87-4.83,4.17-4.83,4.17,2.16,4.17,4.83Z"/>
  <path class="st0" d="M193.31,19.02c.05.07.03.16-.04.2l-11.28,7.59c-.07.04-.16.03-.2-.04l-1.95-2.9c-.04-.07-.03-.16.04-.2l11.28-7.59c.07-.04.16-.03.2.04l1.95,2.9Z"/>
  <path d="M344.83,37.09c-1.85-1.22-3.69-1.82-5.54-1.78-2.97.06-5.53,1.47-7.69,4.25-2.16,2.77-3.2,6.08-3.13,9.93l.54,27.03-8.36.17-3.96-51.69,11.38,4.38.15,7.53c2.94-5.67,7.42-8.56,13.43-8.68,1.5-.03,3.66.19,6.49.66l-3.31,8.21Z"/>
  <path class="st1" d="M264.01,46.9s73.1,23.01,128.58-5.44"/>
  <polygon points="405.71 72.15 431.59 34.86 431.59 32.48 392.58 28.71 393.03 39.97 419.4 39.97 392.58 77.44 392.58 79.64 431.86 79.64 431.86 69.3 405.71 72.15"/>
</svg>